<mxfile host="app.diagrams.net" modified="2023-11-25T13:19:19.067Z" agent="Mozilla/5.0 (Macintosh; Intel Mac OS X 10_15_7) AppleWebKit/605.1.15 (KHTML, like Gecko) Version/17.1 Safari/605.1.15" etag="mV8G5NtiJC1L8iyqacM2" version="22.1.4" type="github">
  <diagram name="Page-1" id="74e2e168-ea6b-b213-b513-2b3c1d86103e">
    <mxGraphModel dx="1363" dy="1741" grid="1" gridSize="10" guides="1" tooltips="1" connect="1" arrows="1" fold="1" page="1" pageScale="1" pageWidth="1100" pageHeight="850" background="none" math="0" shadow="0">
      <root>
        <mxCell id="0" />
        <mxCell id="1" parent="0" />
        <mxCell id="3KSagA3RKoiGqlCT8tXm-11" value="" style="edgeStyle=orthogonalEdgeStyle;rounded=0;orthogonalLoop=1;jettySize=auto;html=1;" edge="1" parent="1" source="3KSagA3RKoiGqlCT8tXm-1" target="3KSagA3RKoiGqlCT8tXm-2">
          <mxGeometry relative="1" as="geometry" />
        </mxCell>
        <mxCell id="3KSagA3RKoiGqlCT8tXm-1" value="Start" style="ellipse;whiteSpace=wrap;html=1;" vertex="1" parent="1">
          <mxGeometry x="480" y="-820" width="120" height="80" as="geometry" />
        </mxCell>
        <mxCell id="3KSagA3RKoiGqlCT8tXm-12" value="" style="edgeStyle=orthogonalEdgeStyle;rounded=0;orthogonalLoop=1;jettySize=auto;html=1;" edge="1" parent="1" source="3KSagA3RKoiGqlCT8tXm-2" target="3KSagA3RKoiGqlCT8tXm-4">
          <mxGeometry relative="1" as="geometry" />
        </mxCell>
        <mxCell id="3KSagA3RKoiGqlCT8tXm-2" value="Input: int n,m&amp;nbsp;" style="shape=parallelogram;perimeter=parallelogramPerimeter;whiteSpace=wrap;html=1;fixedSize=1;" vertex="1" parent="1">
          <mxGeometry x="480" y="-680" width="120" height="60" as="geometry" />
        </mxCell>
        <mxCell id="3KSagA3RKoiGqlCT8tXm-13" value="" style="edgeStyle=orthogonalEdgeStyle;rounded=0;orthogonalLoop=1;jettySize=auto;html=1;" edge="1" parent="1" source="3KSagA3RKoiGqlCT8tXm-4" target="3KSagA3RKoiGqlCT8tXm-5">
          <mxGeometry relative="1" as="geometry" />
        </mxCell>
        <mxCell id="3KSagA3RKoiGqlCT8tXm-4" value="m=(n)2+(m)2" style="rounded=0;whiteSpace=wrap;html=1;" vertex="1" parent="1">
          <mxGeometry x="480" y="-530" width="120" height="60" as="geometry" />
        </mxCell>
        <mxCell id="3KSagA3RKoiGqlCT8tXm-10" value="" style="edgeStyle=orthogonalEdgeStyle;rounded=0;orthogonalLoop=1;jettySize=auto;html=1;" edge="1" parent="1" source="3KSagA3RKoiGqlCT8tXm-5" target="3KSagA3RKoiGqlCT8tXm-6">
          <mxGeometry relative="1" as="geometry" />
        </mxCell>
        <mxCell id="3KSagA3RKoiGqlCT8tXm-5" value="print: m" style="rounded=0;whiteSpace=wrap;html=1;" vertex="1" parent="1">
          <mxGeometry x="480" y="-400" width="120" height="60" as="geometry" />
        </mxCell>
        <mxCell id="3KSagA3RKoiGqlCT8tXm-6" value="End" style="ellipse;whiteSpace=wrap;html=1;" vertex="1" parent="1">
          <mxGeometry x="480" y="-280" width="120" height="80" as="geometry" />
        </mxCell>
      </root>
    </mxGraphModel>
  </diagram>
</mxfile>
